<?xml version="1.0" encoding="UTF-8"?>
<svg xmlns="http://www.w3.org/2000/svg" xmlns:xlink="http://www.w3.org/1999/xlink" width="22px" height="20px" viewBox="0 0 21 20" version="1.1">
<g id="surface1">
<path style=" stroke:none;fill-rule:nonzero;fill:rgb(100%,100%,100%);fill-opacity:1;" d="M 20.835938 15.925781 C 20.996094 16.410156 20.964844 16.941406 20.738281 17.394531 C 20.582031 17.714844 20.355469 17.996094 20.074219 18.214844 C 19.6875 18.511719 19.265625 18.753906 18.816406 18.941406 C 18.269531 19.175781 17.714844 19.378906 17.144531 19.542969 C 16.320312 19.777344 15.472656 19.90625 14.621094 19.925781 C 13.421875 19.9375 12.390625 19.644531 11.660156 18.902344 C 10.914062 19 10.160156 19.003906 9.417969 18.910156 C 8.679688 19.648438 7.652344 19.9375 6.457031 19.925781 C 5.601562 19.90625 4.753906 19.777344 3.929688 19.542969 C 3.363281 19.378906 2.804688 19.175781 2.261719 18.941406 C 1.757812 18.71875 1.339844 18.488281 1.003906 18.214844 C 0.726562 17.996094 0.496094 17.714844 0.339844 17.394531 C 0.121094 16.941406 0.078125 16.417969 0.246094 15.925781 C 0.0820312 15.523438 0.0546875 15.070312 0.171875 14.648438 C 0.226562 14.433594 0.316406 14.230469 0.433594 14.054688 C 0.238281 13.375 0.417969 12.636719 0.898438 12.128906 C 1.070312 11.929688 1.28125 11.769531 1.519531 11.660156 C 0.648438 7.847656 2.140625 3.875 5.277344 1.660156 C 8.417969 -0.558594 12.558594 -0.5625 15.707031 1.644531 C 18.851562 3.851562 20.355469 7.816406 19.492188 11.632812 C 19.757812 11.742188 19.992188 11.910156 20.179688 12.128906 C 20.660156 12.640625 20.835938 13.375 20.644531 14.054688 C 20.757812 14.230469 20.851562 14.433594 20.90625 14.648438 C 21.023438 15.070312 20.996094 15.519531 20.835938 15.925781 Z M 20.835938 15.925781 "/>
<path style=" stroke:none;fill-rule:nonzero;fill:rgb(100%,82.352941%,11.764706%);fill-opacity:1;" d="M 10.4375 17.386719 C 14.679688 17.386719 18.117188 13.851562 18.117188 9.488281 C 18.117188 5.125 14.679688 1.589844 10.4375 1.589844 C 6.195312 1.589844 2.753906 5.125 2.753906 9.488281 C 2.753906 13.851562 6.195312 17.386719 10.4375 17.386719 Z M 10.4375 17.386719 "/>
<path style=" stroke:none;fill-rule:nonzero;fill:rgb(100%,61.568627%,4.313725%);fill-opacity:1;" d="M 18.117188 9.488281 C 18.117188 5.125 14.679688 1.589844 10.4375 1.589844 C 6.195312 1.589844 2.753906 5.125 2.753906 9.488281 C 2.753906 13.851562 6.195312 17.386719 10.4375 17.386719 C 14.679688 17.386719 18.117188 13.851562 18.117188 9.488281 Z M 1.871094 9.488281 C 1.871094 4.625 5.707031 0.683594 10.4375 0.683594 C 15.167969 0.683594 19 4.625 19 9.488281 C 19 14.351562 15.167969 18.296875 10.4375 18.296875 C 5.707031 18.296875 1.871094 14.351562 1.871094 9.488281 Z M 1.871094 9.488281 "/>
<path style=" stroke:none;fill-rule:nonzero;fill:rgb(22.745098%,23.137255%,27.058824%);fill-opacity:1;" d="M 12.929688 7.339844 C 13.214844 7.441406 13.324219 8.035156 13.609375 7.882812 C 14.148438 7.585938 14.355469 6.898438 14.066406 6.34375 C 13.78125 5.789062 13.113281 5.582031 12.574219 5.875 C 12.035156 6.167969 11.828125 6.855469 12.117188 7.410156 C 12.25 7.671875 12.679688 7.246094 12.933594 7.339844 Z M 7.726562 7.339844 C 7.441406 7.441406 7.332031 8.035156 7.046875 7.882812 C 6.507812 7.585938 6.304688 6.898438 6.589844 6.34375 C 6.875 5.789062 7.542969 5.582031 8.082031 5.875 C 8.625 6.167969 8.828125 6.855469 8.542969 7.410156 C 8.40625 7.671875 7.976562 7.246094 7.722656 7.339844 Z M 7.726562 7.339844 "/>
<path style=" stroke:none;fill-rule:nonzero;fill:rgb(100%,19.607843%,23.921569%);fill-opacity:1;" d="M 10.378906 12.792969 C 12.554688 12.792969 13.253906 10.800781 13.253906 9.78125 C 13.253906 9.246094 12.90625 9.414062 12.351562 9.699219 C 11.835938 9.960938 11.144531 10.320312 10.382812 10.320312 C 8.792969 10.320312 7.507812 8.757812 7.507812 9.78125 C 7.507812 10.800781 8.207031 12.792969 10.382812 12.792969 Z M 10.378906 12.792969 "/>
<path style=" stroke:none;fill-rule:evenodd;fill:rgb(22.745098%,23.137255%,27.058824%);fill-opacity:1;" d="M 8.714844 12.273438 C 8.953125 11.78125 9.375 11.410156 9.886719 11.253906 C 9.976562 11.226562 10.066406 11.382812 10.160156 11.542969 C 10.25 11.699219 10.34375 11.855469 10.4375 11.855469 C 10.535156 11.855469 10.636719 11.699219 10.730469 11.546875 C 10.828125 11.386719 10.925781 11.234375 11.023438 11.261719 C 11.496094 11.417969 11.894531 11.757812 12.125 12.210938 C 12.953125 11.542969 13.253906 10.453125 13.253906 9.78125 C 13.253906 9.246094 12.90625 9.414062 12.351562 9.699219 L 12.320312 9.714844 C 11.808594 9.976562 11.128906 10.320312 10.378906 10.320312 C 9.632812 10.320312 8.953125 9.976562 8.441406 9.714844 C 7.867188 9.421875 7.507812 9.238281 7.507812 9.78125 C 7.507812 10.472656 7.828125 11.613281 8.714844 12.273438 Z M 8.714844 12.273438 "/>
<path style=" stroke:none;fill-rule:nonzero;fill:rgb(100%,61.568627%,4.313725%);fill-opacity:1;" d="M 15.628906 8.410156 C 16.027344 8.410156 16.347656 8.078125 16.347656 7.671875 C 16.347656 7.261719 16.027344 6.933594 15.628906 6.933594 C 15.234375 6.933594 14.914062 7.261719 14.914062 7.671875 C 14.914062 8.078125 15.234375 8.410156 15.628906 8.410156 Z M 5.351562 8.410156 C 5.75 8.410156 6.070312 8.078125 6.070312 7.671875 C 6.070312 7.261719 5.75 6.933594 5.351562 6.933594 C 4.953125 6.933594 4.632812 7.261719 4.632812 7.671875 C 4.632812 8.078125 4.953125 8.410156 5.351562 8.410156 Z M 3.871094 10.910156 C 3.515625 10.910156 3.195312 11.058594 2.972656 11.335938 C 2.78125 11.574219 2.679688 11.878906 2.679688 12.1875 C 2.539062 12.144531 2.394531 12.121094 2.25 12.121094 C 1.90625 12.121094 1.597656 12.253906 1.378906 12.496094 C 0.976562 12.925781 0.90625 13.578125 1.203125 14.089844 C 1.007812 14.253906 0.867188 14.476562 0.808594 14.730469 C 0.753906 14.933594 0.699219 15.367188 0.984375 15.808594 C 0.769531 16.148438 0.738281 16.578125 0.902344 16.949219 C 1.128906 17.476562 1.691406 17.886719 2.785156 18.335938 C 3.464844 18.613281 4.085938 18.789062 4.089844 18.789062 C 4.878906 19.015625 5.691406 19.136719 6.507812 19.15625 C 7.804688 19.15625 8.730469 18.746094 9.261719 17.941406 C 10.121094 16.648438 10 15.464844 8.886719 14.324219 C 8.273438 13.691406 7.863281 12.761719 7.78125 12.558594 C 7.609375 11.953125 7.152344 11.28125 6.398438 11.28125 C 5.992188 11.285156 5.613281 11.496094 5.382812 11.839844 C 5.160156 11.550781 4.945312 11.328125 4.75 11.199219 C 4.492188 11.015625 4.1875 10.917969 3.871094 10.910156 Z M 3.871094 11.816406 C 3.984375 11.816406 4.125 11.867188 4.273438 11.964844 C 4.75 12.273438 5.65625 13.882812 5.992188 14.507812 C 6.101562 14.714844 6.292969 14.804688 6.464844 14.804688 C 6.804688 14.804688 7.070312 14.457031 6.496094 14.011719 C 5.628906 13.347656 5.933594 12.257812 6.347656 12.191406 C 6.363281 12.1875 6.382812 12.1875 6.398438 12.1875 C 6.773438 12.1875 6.941406 12.855469 6.941406 12.855469 C 6.941406 12.855469 7.425781 14.109375 8.261719 14.96875 C 9.097656 15.824219 9.140625 16.511719 8.53125 17.429688 C 8.117188 18.054688 7.324219 18.242188 6.507812 18.242188 C 5.664062 18.242188 4.800781 18.039062 4.316406 17.910156 C 4.289062 17.90625 1.339844 17.046875 1.714844 16.320312 C 1.777344 16.199219 1.882812 16.148438 2.011719 16.148438 C 2.539062 16.148438 3.492188 16.953125 3.90625 16.953125 C 3.996094 16.953125 4.0625 16.914062 4.089844 16.816406 C 4.265625 16.167969 1.421875 15.894531 1.664062 14.960938 C 1.707031 14.792969 1.820312 14.726562 1.980469 14.726562 C 2.675781 14.726562 4.234375 15.984375 4.5625 15.984375 C 4.585938 15.984375 4.605469 15.976562 4.617188 15.960938 C 4.777344 15.6875 4.6875 15.496094 3.53125 14.78125 C 2.378906 14.0625 1.570312 13.628906 2.027344 13.113281 C 2.082031 13.054688 2.15625 13.027344 2.25 13.027344 C 2.949219 13.027344 4.605469 14.578125 4.605469 14.578125 C 4.605469 14.578125 5.054688 15.054688 5.324219 15.054688 C 5.386719 15.054688 5.441406 15.03125 5.476562 14.96875 C 5.664062 14.636719 3.695312 13.101562 3.582031 12.464844 C 3.507812 12.035156 3.636719 11.816406 3.871094 11.816406 Z M 3.871094 11.816406 "/>
<path style=" stroke:none;fill-rule:nonzero;fill:rgb(100%,82.352941%,11.764706%);fill-opacity:1;" d="M 8.53125 17.429688 C 9.140625 16.511719 9.097656 15.824219 8.261719 14.964844 C 7.425781 14.109375 6.941406 12.851562 6.941406 12.851562 C 6.941406 12.851562 6.761719 12.125 6.347656 12.191406 C 5.933594 12.261719 5.628906 13.347656 6.496094 14.011719 C 7.359375 14.679688 6.324219 15.132812 5.992188 14.507812 C 5.660156 13.882812 4.75 12.273438 4.273438 11.964844 C 3.804688 11.660156 3.472656 11.828125 3.582031 12.464844 C 3.695312 13.101562 5.667969 14.636719 5.476562 14.964844 C 5.28125 15.300781 4.605469 14.578125 4.605469 14.578125 C 4.605469 14.578125 2.492188 12.597656 2.027344 13.113281 C 1.570312 13.628906 2.378906 14.0625 3.53125 14.78125 C 4.6875 15.496094 4.777344 15.6875 4.617188 15.960938 C 4.449219 16.234375 1.902344 14.023438 1.664062 14.960938 C 1.421875 15.894531 4.265625 16.164062 4.089844 16.8125 C 3.914062 17.460938 2.085938 15.589844 1.714844 16.316406 C 1.339844 17.046875 4.289062 17.90625 4.316406 17.910156 C 5.265625 18.164062 7.6875 18.703125 8.53125 17.429688 Z M 8.53125 17.429688 "/>
<path style=" stroke:none;fill-rule:nonzero;fill:rgb(100%,61.568627%,4.313725%);fill-opacity:1;" d="M 17.109375 10.910156 C 17.46875 10.910156 17.789062 11.058594 18.007812 11.335938 C 18.199219 11.574219 18.304688 11.878906 18.304688 12.1875 C 18.441406 12.144531 18.589844 12.121094 18.734375 12.121094 C 19.078125 12.121094 19.386719 12.253906 19.605469 12.496094 C 20.007812 12.925781 20.078125 13.578125 19.78125 14.089844 C 19.976562 14.253906 20.113281 14.476562 20.175781 14.730469 C 20.230469 14.933594 20.28125 15.367188 20 15.808594 C 20.214844 16.148438 20.246094 16.578125 20.082031 16.949219 C 19.855469 17.476562 19.292969 17.886719 18.199219 18.335938 C 17.519531 18.613281 16.894531 18.789062 16.890625 18.789062 C 16.101562 19.015625 15.292969 19.136719 14.472656 19.15625 C 13.179688 19.15625 12.253906 18.746094 11.71875 17.941406 C 10.863281 16.648438 10.984375 15.464844 12.097656 14.324219 C 12.710938 13.691406 13.121094 12.761719 13.203125 12.558594 C 13.375 11.953125 13.828125 11.28125 14.582031 11.28125 C 14.988281 11.285156 15.367188 11.496094 15.601562 11.839844 C 15.820312 11.550781 16.039062 11.328125 16.234375 11.199219 C 16.492188 11.015625 16.796875 10.917969 17.109375 10.910156 Z M 17.109375 11.816406 C 16.996094 11.816406 16.859375 11.867188 16.707031 11.964844 C 16.234375 12.273438 15.324219 13.882812 14.992188 14.507812 C 14.898438 14.6875 14.71875 14.804688 14.519531 14.804688 C 14.179688 14.804688 13.910156 14.457031 14.488281 14.011719 C 15.351562 13.347656 15.050781 12.257812 14.636719 12.191406 C 14.617188 12.191406 14.601562 12.1875 14.582031 12.1875 C 14.207031 12.1875 14.042969 12.855469 14.042969 12.855469 C 14.042969 12.855469 13.554688 14.109375 12.722656 14.96875 C 11.886719 15.824219 11.839844 16.511719 12.453125 17.429688 C 12.867188 18.054688 13.660156 18.242188 14.472656 18.242188 C 15.320312 18.242188 16.183594 18.039062 16.667969 17.910156 C 16.691406 17.90625 19.644531 17.046875 19.269531 16.320312 C 19.203125 16.199219 19.101562 16.148438 18.972656 16.148438 C 18.445312 16.148438 17.488281 16.953125 17.078125 16.953125 C 16.984375 16.953125 16.921875 16.914062 16.894531 16.816406 C 16.71875 16.167969 19.558594 15.894531 19.320312 14.960938 C 19.277344 14.792969 19.164062 14.726562 19 14.726562 C 18.308594 14.726562 16.746094 15.984375 16.417969 15.984375 C 16.398438 15.984375 16.378906 15.976562 16.367188 15.960938 C 16.207031 15.6875 16.292969 15.496094 17.449219 14.78125 C 18.605469 14.0625 19.414062 13.628906 18.949219 13.113281 C 18.898438 13.054688 18.824219 13.027344 18.734375 13.027344 C 18.03125 13.027344 16.375 14.578125 16.375 14.578125 C 16.375 14.578125 15.929688 15.054688 15.660156 15.054688 C 15.597656 15.058594 15.539062 15.023438 15.507812 14.96875 C 15.316406 14.636719 17.289062 13.101562 17.398438 12.464844 C 17.472656 12.035156 17.347656 11.816406 17.109375 11.816406 Z M 17.109375 11.816406 "/>
<path style=" stroke:none;fill-rule:nonzero;fill:rgb(100%,82.352941%,11.764706%);fill-opacity:1;" d="M 12.453125 17.429688 C 11.84375 16.511719 11.886719 15.824219 12.722656 14.964844 C 13.554688 14.109375 14.042969 12.851562 14.042969 12.851562 C 14.042969 12.851562 14.222656 12.125 14.636719 12.191406 C 15.050781 12.261719 15.351562 13.347656 14.488281 14.011719 C 13.621094 14.679688 14.660156 15.132812 14.992188 14.507812 C 15.324219 13.882812 16.234375 12.273438 16.707031 11.964844 C 17.179688 11.660156 17.511719 11.828125 17.398438 12.464844 C 17.289062 13.101562 15.316406 14.636719 15.507812 14.964844 C 15.699219 15.300781 16.375 14.578125 16.375 14.578125 C 16.375 14.578125 18.492188 12.597656 18.953125 13.113281 C 19.414062 13.628906 18.605469 14.0625 17.449219 14.78125 C 16.292969 15.496094 16.207031 15.6875 16.367188 15.960938 C 16.53125 16.234375 19.082031 14.023438 19.320312 14.960938 C 19.558594 15.894531 16.71875 16.164062 16.894531 16.8125 C 17.070312 17.460938 18.894531 15.589844 19.269531 16.316406 C 19.644531 17.046875 16.695312 17.90625 16.667969 17.910156 C 15.71875 18.164062 13.296875 18.703125 12.453125 17.429688 Z M 12.453125 17.429688 "/>
</g>
</svg>
